<mxfile host="app.diagrams.net" modified="2024-06-04T22:43:07.621Z" agent="Mozilla/5.0 (X11; Linux x86_64; rv:125.0) Gecko/20100101 Firefox/125.0" etag="rB1N-y7PVhM2UmqS_DHV" version="24.4.13" type="device">
  <diagram name="Page-1" id="2YBvvXClWsGukQMizWep">
    <mxGraphModel dx="1414" dy="770" grid="1" gridSize="10" guides="1" tooltips="1" connect="1" arrows="1" fold="1" page="1" pageScale="1" pageWidth="850" pageHeight="1100" math="0" shadow="0">
      <root>
        <mxCell id="0" />
        <mxCell id="1" parent="0" />
        <mxCell id="hmJiqQHSdP5hb1CQ0jP2-31" value="accept / deny call" style="html=1;verticalAlign=bottom;startArrow=circle;startFill=1;endArrow=open;startSize=6;endSize=8;curved=0;rounded=0;" edge="1" parent="1">
          <mxGeometry x="-0.005" width="80" relative="1" as="geometry">
            <mxPoint x="780" y="444" as="sourcePoint" />
            <mxPoint x="644.5" y="444" as="targetPoint" />
            <mxPoint as="offset" />
          </mxGeometry>
        </mxCell>
        <mxCell id="hmJiqQHSdP5hb1CQ0jP2-1" value=":bell-client" style="shape=umlLifeline;perimeter=lifelinePerimeter;whiteSpace=wrap;html=1;container=0;dropTarget=0;collapsible=0;recursiveResize=0;outlineConnect=0;portConstraint=eastwest;newEdgeStyle={&quot;edgeStyle&quot;:&quot;elbowEdgeStyle&quot;,&quot;elbow&quot;:&quot;vertical&quot;,&quot;curved&quot;:0,&quot;rounded&quot;:0};" vertex="1" parent="1">
          <mxGeometry x="60" y="57" width="100" height="853" as="geometry" />
        </mxCell>
        <mxCell id="hmJiqQHSdP5hb1CQ0jP2-2" value="" style="html=1;points=[];perimeter=orthogonalPerimeter;outlineConnect=0;targetShapes=umlLifeline;portConstraint=eastwest;newEdgeStyle={&quot;edgeStyle&quot;:&quot;elbowEdgeStyle&quot;,&quot;elbow&quot;:&quot;vertical&quot;,&quot;curved&quot;:0,&quot;rounded&quot;:0};" vertex="1" parent="hmJiqQHSdP5hb1CQ0jP2-1">
          <mxGeometry x="45" y="60" width="10" height="780" as="geometry" />
        </mxCell>
        <mxCell id="hmJiqQHSdP5hb1CQ0jP2-3" value="callUser" style="html=1;verticalAlign=bottom;startArrow=oval;endArrow=block;startSize=8;edgeStyle=elbowEdgeStyle;elbow=vertical;curved=0;rounded=0;" edge="1" parent="hmJiqQHSdP5hb1CQ0jP2-1">
          <mxGeometry relative="1" as="geometry">
            <mxPoint x="-10" y="93" as="sourcePoint" />
            <mxPoint x="45" y="93" as="targetPoint" />
            <Array as="points">
              <mxPoint x="20" y="93" />
            </Array>
          </mxGeometry>
        </mxCell>
        <mxCell id="hmJiqQHSdP5hb1CQ0jP2-5" value=":User" style="shape=umlLifeline;perimeter=lifelinePerimeter;whiteSpace=wrap;html=1;container=0;dropTarget=0;collapsible=0;recursiveResize=0;outlineConnect=0;portConstraint=eastwest;newEdgeStyle={&quot;edgeStyle&quot;:&quot;elbowEdgeStyle&quot;,&quot;elbow&quot;:&quot;vertical&quot;,&quot;curved&quot;:0,&quot;rounded&quot;:0};" vertex="1" parent="1">
          <mxGeometry x="590" y="47" width="100" height="853" as="geometry" />
        </mxCell>
        <mxCell id="hmJiqQHSdP5hb1CQ0jP2-6" value="" style="html=1;points=[];perimeter=orthogonalPerimeter;outlineConnect=0;targetShapes=umlLifeline;portConstraint=eastwest;newEdgeStyle={&quot;edgeStyle&quot;:&quot;elbowEdgeStyle&quot;,&quot;elbow&quot;:&quot;vertical&quot;,&quot;curved&quot;:0,&quot;rounded&quot;:0};" vertex="1" parent="hmJiqQHSdP5hb1CQ0jP2-5">
          <mxGeometry x="45" y="70" width="10" height="770" as="geometry" />
        </mxCell>
        <mxCell id="hmJiqQHSdP5hb1CQ0jP2-7" value="&lt;div&gt;:Signalling Server&lt;br&gt;&lt;/div&gt;" style="shape=umlLifeline;perimeter=lifelinePerimeter;whiteSpace=wrap;html=1;container=0;dropTarget=0;collapsible=0;recursiveResize=0;outlineConnect=0;portConstraint=eastwest;newEdgeStyle={&quot;edgeStyle&quot;:&quot;elbowEdgeStyle&quot;,&quot;elbow&quot;:&quot;vertical&quot;,&quot;curved&quot;:0,&quot;rounded&quot;:0};" vertex="1" parent="1">
          <mxGeometry x="330" y="57" width="100" height="843" as="geometry" />
        </mxCell>
        <mxCell id="hmJiqQHSdP5hb1CQ0jP2-8" value="" style="html=1;points=[];perimeter=orthogonalPerimeter;outlineConnect=0;targetShapes=umlLifeline;portConstraint=eastwest;newEdgeStyle={&quot;edgeStyle&quot;:&quot;elbowEdgeStyle&quot;,&quot;elbow&quot;:&quot;vertical&quot;,&quot;curved&quot;:0,&quot;rounded&quot;:0};" vertex="1" parent="hmJiqQHSdP5hb1CQ0jP2-7">
          <mxGeometry x="45" y="60" width="10" height="770" as="geometry" />
        </mxCell>
        <mxCell id="hmJiqQHSdP5hb1CQ0jP2-9" value="" style="endArrow=none;html=1;rounded=0;startArrow=classic;startFill=1;" edge="1" parent="1">
          <mxGeometry width="50" height="50" relative="1" as="geometry">
            <mxPoint x="390" y="129" as="sourcePoint" />
            <mxPoint x="635" y="129" as="targetPoint" />
            <Array as="points">
              <mxPoint x="490" y="129" />
            </Array>
          </mxGeometry>
        </mxCell>
        <mxCell id="hmJiqQHSdP5hb1CQ0jP2-10" value="connect" style="edgeLabel;html=1;align=center;verticalAlign=middle;resizable=0;points=[];" vertex="1" connectable="0" parent="hmJiqQHSdP5hb1CQ0jP2-9">
          <mxGeometry x="-0.3551" y="1" relative="1" as="geometry">
            <mxPoint y="-9" as="offset" />
          </mxGeometry>
        </mxCell>
        <mxCell id="hmJiqQHSdP5hb1CQ0jP2-11" value="" style="endArrow=classic;html=1;rounded=0;" edge="1" parent="1">
          <mxGeometry width="50" height="50" relative="1" as="geometry">
            <mxPoint x="114.5" y="157" as="sourcePoint" />
            <mxPoint x="375" y="157" as="targetPoint" />
          </mxGeometry>
        </mxCell>
        <mxCell id="hmJiqQHSdP5hb1CQ0jP2-12" value="connect" style="edgeLabel;html=1;align=center;verticalAlign=middle;resizable=0;points=[];" vertex="1" connectable="0" parent="hmJiqQHSdP5hb1CQ0jP2-11">
          <mxGeometry x="-0.144" y="2" relative="1" as="geometry">
            <mxPoint x="1" y="-7" as="offset" />
          </mxGeometry>
        </mxCell>
        <mxCell id="hmJiqQHSdP5hb1CQ0jP2-13" value="" style="endArrow=classic;html=1;rounded=0;" edge="1" parent="1">
          <mxGeometry width="50" height="50" relative="1" as="geometry">
            <mxPoint x="120" y="187" as="sourcePoint" />
            <mxPoint x="370.5" y="187" as="targetPoint" />
          </mxGeometry>
        </mxCell>
        <mxCell id="hmJiqQHSdP5hb1CQ0jP2-14" value="callClient" style="edgeLabel;html=1;align=center;verticalAlign=middle;resizable=0;points=[];" vertex="1" connectable="0" parent="hmJiqQHSdP5hb1CQ0jP2-13">
          <mxGeometry x="-0.144" y="2" relative="1" as="geometry">
            <mxPoint x="1" y="-7" as="offset" />
          </mxGeometry>
        </mxCell>
        <mxCell id="hmJiqQHSdP5hb1CQ0jP2-20" value="alt" style="shape=umlFrame;whiteSpace=wrap;html=1;pointerEvents=0;" vertex="1" parent="1">
          <mxGeometry x="40" y="267" width="650" height="150" as="geometry" />
        </mxCell>
        <mxCell id="hmJiqQHSdP5hb1CQ0jP2-18" value="" style="endArrow=classic;html=1;rounded=0;" edge="1" parent="1" target="hmJiqQHSdP5hb1CQ0jP2-8">
          <mxGeometry width="50" height="50" relative="1" as="geometry">
            <mxPoint x="379.5" y="195" as="sourcePoint" />
            <mxPoint x="379.5" y="255" as="targetPoint" />
            <Array as="points">
              <mxPoint x="520" y="195" />
              <mxPoint x="520" y="257" />
            </Array>
          </mxGeometry>
        </mxCell>
        <mxCell id="hmJiqQHSdP5hb1CQ0jP2-19" value="isAllowedUser: allowed" style="edgeLabel;html=1;align=center;verticalAlign=middle;resizable=0;points=[];" vertex="1" connectable="0" parent="hmJiqQHSdP5hb1CQ0jP2-18">
          <mxGeometry x="-0.5643" y="2" relative="1" as="geometry">
            <mxPoint x="19" y="-8" as="offset" />
          </mxGeometry>
        </mxCell>
        <mxCell id="hmJiqQHSdP5hb1CQ0jP2-21" value="[allowed == true]" style="text;html=1;align=center;verticalAlign=middle;resizable=0;points=[];autosize=1;strokeColor=none;fillColor=none;" vertex="1" parent="1">
          <mxGeometry x="390" y="346" width="120" height="30" as="geometry" />
        </mxCell>
        <mxCell id="hmJiqQHSdP5hb1CQ0jP2-23" value="" style="endArrow=classic;html=1;rounded=0;" edge="1" parent="1">
          <mxGeometry width="50" height="50" relative="1" as="geometry">
            <mxPoint x="385" y="384" as="sourcePoint" />
            <mxPoint x="635" y="384" as="targetPoint" />
          </mxGeometry>
        </mxCell>
        <mxCell id="hmJiqQHSdP5hb1CQ0jP2-24" value="callClient" style="edgeLabel;html=1;align=center;verticalAlign=middle;resizable=0;points=[];" vertex="1" connectable="0" parent="hmJiqQHSdP5hb1CQ0jP2-23">
          <mxGeometry x="0.16" relative="1" as="geometry">
            <mxPoint x="5" y="-10" as="offset" />
          </mxGeometry>
        </mxCell>
        <mxCell id="hmJiqQHSdP5hb1CQ0jP2-25" value="[allowed == false]" style="text;html=1;align=center;verticalAlign=middle;resizable=0;points=[];autosize=1;strokeColor=none;fillColor=none;" vertex="1" parent="1">
          <mxGeometry x="130" y="272" width="120" height="30" as="geometry" />
        </mxCell>
        <mxCell id="hmJiqQHSdP5hb1CQ0jP2-26" value="" style="endArrow=classic;html=1;rounded=0;" edge="1" parent="1">
          <mxGeometry width="50" height="50" relative="1" as="geometry">
            <mxPoint x="375" y="315" as="sourcePoint" />
            <mxPoint x="115" y="315" as="targetPoint" />
          </mxGeometry>
        </mxCell>
        <mxCell id="hmJiqQHSdP5hb1CQ0jP2-27" value="callNotAllowed" style="edgeLabel;html=1;align=center;verticalAlign=middle;resizable=0;points=[];" vertex="1" connectable="0" parent="hmJiqQHSdP5hb1CQ0jP2-26">
          <mxGeometry x="0.2308" y="1" relative="1" as="geometry">
            <mxPoint y="-10" as="offset" />
          </mxGeometry>
        </mxCell>
        <mxCell id="hmJiqQHSdP5hb1CQ0jP2-28" value="" style="endArrow=none;dashed=1;html=1;rounded=0;exitX=0;exitY=0.406;exitDx=0;exitDy=0;exitPerimeter=0;entryX=1.002;entryY=0.394;entryDx=0;entryDy=0;entryPerimeter=0;" edge="1" parent="1">
          <mxGeometry width="50" height="50" relative="1" as="geometry">
            <mxPoint x="40" y="334.9000000000001" as="sourcePoint" />
            <mxPoint x="691.3000000000002" y="333.0999999999999" as="targetPoint" />
          </mxGeometry>
        </mxCell>
        <mxCell id="hmJiqQHSdP5hb1CQ0jP2-33" value="alt" style="shape=umlFrame;whiteSpace=wrap;html=1;pointerEvents=0;" vertex="1" parent="1">
          <mxGeometry x="40" y="461" width="650" height="150" as="geometry" />
        </mxCell>
        <mxCell id="hmJiqQHSdP5hb1CQ0jP2-34" value="[call denied]" style="text;html=1;align=center;verticalAlign=middle;resizable=0;points=[];autosize=1;strokeColor=none;fillColor=none;" vertex="1" parent="1">
          <mxGeometry x="475" y="467" width="90" height="30" as="geometry" />
        </mxCell>
        <mxCell id="hmJiqQHSdP5hb1CQ0jP2-35" value="[call accepted]" style="text;html=1;align=center;verticalAlign=middle;resizable=0;points=[];autosize=1;strokeColor=none;fillColor=none;" vertex="1" parent="1">
          <mxGeometry x="513" y="535" width="110" height="30" as="geometry" />
        </mxCell>
        <mxCell id="hmJiqQHSdP5hb1CQ0jP2-36" value="" style="endArrow=classic;html=1;rounded=0;" edge="1" parent="1">
          <mxGeometry width="50" height="50" relative="1" as="geometry">
            <mxPoint x="630" y="504" as="sourcePoint" />
            <mxPoint x="385" y="504" as="targetPoint" />
          </mxGeometry>
        </mxCell>
        <mxCell id="hmJiqQHSdP5hb1CQ0jP2-37" value="denyCall" style="edgeLabel;html=1;align=center;verticalAlign=middle;resizable=0;points=[];" vertex="1" connectable="0" parent="hmJiqQHSdP5hb1CQ0jP2-36">
          <mxGeometry x="0.1429" y="-3" relative="1" as="geometry">
            <mxPoint x="-41" y="-6" as="offset" />
          </mxGeometry>
        </mxCell>
        <mxCell id="hmJiqQHSdP5hb1CQ0jP2-38" value="" style="endArrow=classic;html=1;rounded=0;" edge="1" parent="1" source="hmJiqQHSdP5hb1CQ0jP2-8">
          <mxGeometry width="50" height="50" relative="1" as="geometry">
            <mxPoint x="355" y="514" as="sourcePoint" />
            <mxPoint x="110" y="514" as="targetPoint" />
          </mxGeometry>
        </mxCell>
        <mxCell id="hmJiqQHSdP5hb1CQ0jP2-39" value="callDenied" style="edgeLabel;html=1;align=center;verticalAlign=middle;resizable=0;points=[];" vertex="1" connectable="0" parent="hmJiqQHSdP5hb1CQ0jP2-38">
          <mxGeometry x="0.1429" y="-3" relative="1" as="geometry">
            <mxPoint x="-41" y="-6" as="offset" />
          </mxGeometry>
        </mxCell>
        <mxCell id="hmJiqQHSdP5hb1CQ0jP2-40" value="" style="shape=umlDestroy;whiteSpace=wrap;html=1;strokeWidth=3;targetShapes=umlLifeline;" vertex="1" parent="1">
          <mxGeometry x="96" y="305" width="20" height="20" as="geometry" />
        </mxCell>
        <mxCell id="hmJiqQHSdP5hb1CQ0jP2-43" value="" style="shape=umlDestroy;whiteSpace=wrap;html=1;strokeWidth=3;targetShapes=umlLifeline;" vertex="1" parent="1">
          <mxGeometry x="94" y="502" width="20" height="20" as="geometry" />
        </mxCell>
        <mxCell id="hmJiqQHSdP5hb1CQ0jP2-45" value="" style="endArrow=none;dashed=1;html=1;rounded=0;exitX=0.003;exitY=0.507;exitDx=0;exitDy=0;exitPerimeter=0;" edge="1" parent="1">
          <mxGeometry width="50" height="50" relative="1" as="geometry">
            <mxPoint x="41.950000000000045" y="536.05" as="sourcePoint" />
            <mxPoint x="693" y="535" as="targetPoint" />
          </mxGeometry>
        </mxCell>
        <mxCell id="hmJiqQHSdP5hb1CQ0jP2-46" value="" style="endArrow=classic;html=1;rounded=0;" edge="1" parent="1">
          <mxGeometry width="50" height="50" relative="1" as="geometry">
            <mxPoint x="630" y="571" as="sourcePoint" />
            <mxPoint x="385" y="571" as="targetPoint" />
          </mxGeometry>
        </mxCell>
        <mxCell id="hmJiqQHSdP5hb1CQ0jP2-47" value="answerCall(sdp offer)" style="edgeLabel;html=1;align=center;verticalAlign=middle;resizable=0;points=[];" vertex="1" connectable="0" parent="hmJiqQHSdP5hb1CQ0jP2-46">
          <mxGeometry x="0.1429" y="-3" relative="1" as="geometry">
            <mxPoint x="-39" y="-7" as="offset" />
          </mxGeometry>
        </mxCell>
        <mxCell id="hmJiqQHSdP5hb1CQ0jP2-48" value="" style="endArrow=classic;html=1;rounded=0;" edge="1" parent="1" target="hmJiqQHSdP5hb1CQ0jP2-2">
          <mxGeometry width="50" height="50" relative="1" as="geometry">
            <mxPoint x="375" y="587" as="sourcePoint" />
            <mxPoint x="130" y="587" as="targetPoint" />
          </mxGeometry>
        </mxCell>
        <mxCell id="hmJiqQHSdP5hb1CQ0jP2-49" value="callAccepted(sdp offer)" style="edgeLabel;html=1;align=center;verticalAlign=middle;resizable=0;points=[];" vertex="1" connectable="0" parent="hmJiqQHSdP5hb1CQ0jP2-48">
          <mxGeometry x="0.1429" y="-3" relative="1" as="geometry">
            <mxPoint x="-41" y="-6" as="offset" />
          </mxGeometry>
        </mxCell>
        <mxCell id="hmJiqQHSdP5hb1CQ0jP2-50" value="" style="endArrow=classic;html=1;rounded=0;" edge="1" parent="1">
          <mxGeometry width="50" height="50" relative="1" as="geometry">
            <mxPoint x="116" y="657" as="sourcePoint" />
            <mxPoint x="630" y="657" as="targetPoint" />
          </mxGeometry>
        </mxCell>
        <mxCell id="hmJiqQHSdP5hb1CQ0jP2-51" value="answerSignal(sdp answer)" style="edgeLabel;html=1;align=center;verticalAlign=middle;resizable=0;points=[];" vertex="1" connectable="0" parent="hmJiqQHSdP5hb1CQ0jP2-50">
          <mxGeometry x="-0.7326" relative="1" as="geometry">
            <mxPoint x="6" y="-12" as="offset" />
          </mxGeometry>
        </mxCell>
        <mxCell id="hmJiqQHSdP5hb1CQ0jP2-52" value="opt" style="shape=umlFrame;whiteSpace=wrap;html=1;pointerEvents=0;" vertex="1" parent="1">
          <mxGeometry x="40" y="680" width="650" height="70" as="geometry" />
        </mxCell>
        <mxCell id="hmJiqQHSdP5hb1CQ0jP2-53" value="[client not connected]" style="text;html=1;align=center;verticalAlign=middle;whiteSpace=wrap;rounded=0;" vertex="1" parent="1">
          <mxGeometry x="150" y="680" width="140" height="30" as="geometry" />
        </mxCell>
        <mxCell id="hmJiqQHSdP5hb1CQ0jP2-54" value="[client not connected]" style="text;html=1;align=center;verticalAlign=middle;whiteSpace=wrap;rounded=0;" vertex="1" parent="1">
          <mxGeometry x="420" y="680" width="140" height="30" as="geometry" />
        </mxCell>
        <mxCell id="hmJiqQHSdP5hb1CQ0jP2-57" value="" style="endArrow=classic;html=1;rounded=0;entryX=1.5;entryY=0.773;entryDx=0;entryDy=0;entryPerimeter=0;" edge="1" parent="1" target="hmJiqQHSdP5hb1CQ0jP2-2">
          <mxGeometry width="50" height="50" relative="1" as="geometry">
            <mxPoint x="370" y="720" as="sourcePoint" />
            <mxPoint x="615" y="720" as="targetPoint" />
          </mxGeometry>
        </mxCell>
        <mxCell id="hmJiqQHSdP5hb1CQ0jP2-58" value="callFailed" style="edgeLabel;html=1;align=center;verticalAlign=middle;resizable=0;points=[];" vertex="1" connectable="0" parent="hmJiqQHSdP5hb1CQ0jP2-57">
          <mxGeometry x="-0.08" y="-1" relative="1" as="geometry">
            <mxPoint x="-2" y="-8" as="offset" />
          </mxGeometry>
        </mxCell>
        <mxCell id="hmJiqQHSdP5hb1CQ0jP2-59" value="callFailed" style="edgeLabel;html=1;align=center;verticalAlign=middle;resizable=0;points=[];" vertex="1" connectable="0" parent="1">
          <mxGeometry x="480.0002433119928" y="710.002400029595" as="geometry" />
        </mxCell>
        <mxCell id="hmJiqQHSdP5hb1CQ0jP2-60" value="opt" style="shape=umlFrame;whiteSpace=wrap;html=1;pointerEvents=0;" vertex="1" parent="1">
          <mxGeometry x="40" y="770" width="650" height="70" as="geometry" />
        </mxCell>
        <mxCell id="hmJiqQHSdP5hb1CQ0jP2-61" value="[new IceCandidate]" style="text;html=1;align=center;verticalAlign=middle;whiteSpace=wrap;rounded=0;" vertex="1" parent="1">
          <mxGeometry x="140" y="770" width="140" height="30" as="geometry" />
        </mxCell>
        <mxCell id="hmJiqQHSdP5hb1CQ0jP2-68" value="" style="endArrow=classic;html=1;rounded=0;" edge="1" parent="1">
          <mxGeometry width="50" height="50" relative="1" as="geometry">
            <mxPoint x="640" y="811" as="sourcePoint" />
            <mxPoint x="385" y="811" as="targetPoint" />
          </mxGeometry>
        </mxCell>
        <mxCell id="hmJiqQHSdP5hb1CQ0jP2-70" value="iceCandidate" style="edgeLabel;html=1;align=center;verticalAlign=middle;resizable=0;points=[];" vertex="1" connectable="0" parent="hmJiqQHSdP5hb1CQ0jP2-68">
          <mxGeometry x="-0.0902" y="-1" relative="1" as="geometry">
            <mxPoint y="-8" as="offset" />
          </mxGeometry>
        </mxCell>
        <mxCell id="hmJiqQHSdP5hb1CQ0jP2-69" value="[new IceCandidate]" style="text;html=1;align=center;verticalAlign=middle;whiteSpace=wrap;rounded=0;" vertex="1" parent="1">
          <mxGeometry x="410" y="770" width="140" height="30" as="geometry" />
        </mxCell>
        <mxCell id="hmJiqQHSdP5hb1CQ0jP2-71" value="" style="endArrow=classic;html=1;rounded=0;" edge="1" parent="1">
          <mxGeometry width="50" height="50" relative="1" as="geometry">
            <mxPoint x="371" y="830" as="sourcePoint" />
            <mxPoint x="116" y="830" as="targetPoint" />
          </mxGeometry>
        </mxCell>
        <mxCell id="hmJiqQHSdP5hb1CQ0jP2-72" value="iceCandidate" style="edgeLabel;html=1;align=center;verticalAlign=middle;resizable=0;points=[];" vertex="1" connectable="0" parent="hmJiqQHSdP5hb1CQ0jP2-71">
          <mxGeometry x="-0.0902" y="-1" relative="1" as="geometry">
            <mxPoint y="-8" as="offset" />
          </mxGeometry>
        </mxCell>
        <mxCell id="hmJiqQHSdP5hb1CQ0jP2-74" value="" style="shape=umlDestroy;whiteSpace=wrap;html=1;strokeWidth=3;targetShapes=umlLifeline;" vertex="1" parent="1">
          <mxGeometry x="96" y="710" width="20" height="20" as="geometry" />
        </mxCell>
        <mxCell id="hmJiqQHSdP5hb1CQ0jP2-76" value="" style="endArrow=classic;html=1;rounded=0;" edge="1" parent="1" target="hmJiqQHSdP5hb1CQ0jP2-75">
          <mxGeometry width="50" height="50" relative="1" as="geometry">
            <mxPoint x="390" y="720" as="sourcePoint" />
            <mxPoint x="635" y="720" as="targetPoint" />
          </mxGeometry>
        </mxCell>
        <mxCell id="hmJiqQHSdP5hb1CQ0jP2-75" value="" style="shape=umlDestroy;whiteSpace=wrap;html=1;strokeWidth=3;targetShapes=umlLifeline;" vertex="1" parent="1">
          <mxGeometry x="630" y="710" width="20" height="20" as="geometry" />
        </mxCell>
      </root>
    </mxGraphModel>
  </diagram>
</mxfile>
